<svg
  xmlns:dc="http://purl.org/dc/elements/1.1/"
  xmlns:cc="http://creativecommons.org/ns#"
  xmlns:rdf="http://www.w3.org/1999/02/22-rdf-syntax-ns#"
  xmlns:svg="http://www.w3.org/2000/svg"
  xmlns="http://www.w3.org/2000/svg"
  xmlns:sodipodi="http://sodipodi.sourceforge.net/DTD/sodipodi-0.dtd"
  xmlns:inkscape="http://www.inkscape.org/namespaces/inkscape"
  viewBox="0 0 740.01608 848.1993375000001"
  version="1.1"
  x="0px"
  y="0px"
>
  <g transform="translate(-84.421939,-242.59935)">
    <path
      style=""
      d="m 549.765,242.5994 a 89.244933,89.244933 0 0 0 -89.335,89.214 89.244933,89.244933 0 0 0 89.335,89.3356 89.244933,89.244933 0 0 0 89.215,-89.3356 89.244933,89.244933 0 0 0 -89.215,-89.214 z m -229.458,12.9704 a 69.695452,69.695452 0 0 0 -69.698,69.6984 69.695452,69.695452 0 0 0 69.698,69.698 69.695452,69.695452 0 0 0 69.697,-69.698 69.695452,69.695452 0 0 0 -69.697,-69.6984 z M 164.909,401.8756 a 55.235041,55.235041 0 0 0 -55.153,55.2741 55.235041,55.235041 0 0 0 55.153,55.2735 55.235041,55.235041 0 0 0 55.274,-55.2735 55.235041,55.235041 0 0 0 -55.274,-55.2741 z m 551.284,15.0308 A 108.23586,108.23586 0 0 0 607.947,525.1509 108.23586,108.23586 0 0 0 716.193,633.3956 108.23586,108.23586 0 0 0 824.438,525.1509 108.23586,108.23586 0 0 0 716.193,416.9064 Z M 127.94,578.3639 a 43.443291,43.443291 0 0 0 -43.518,43.516 43.443291,43.443291 0 0 0 43.518,43.3948 43.443291,43.443291 0 0 0 43.394,-43.3948 43.443291,43.443291 0 0 0 -43.394,-43.516 z m 52.849,161.5793 a 39.967828,39.967828 0 0 0 -39.88,39.8797 39.967828,39.967828 0 0 0 39.88,40.0008 39.967828,39.967828 0 0 0 40,-40.0008 39.967828,39.967828 0 0 0 -40,-39.8797 z m 123.639,107.8809 a 31.217109,31.217109 0 0 0 -31.275,31.273 31.217109,31.217109 0 0 0 31.275,31.1525 31.217109,31.217109 0 0 0 31.151,-31.1525 31.217109,31.217109 0 0 0 -31.151,-31.273 z m 124.608,32.4857 a 20.418347,20.418347 0 0 0 -20.364,20.4847 20.418347,20.418347 0 0 0 20.364,20.3642 20.418347,20.418347 0 0 0 20.485,-20.3642 20.418347,20.418347 0 0 0 -20.485,-20.4847 z"
      fill="#fd7777"
    />
  </g>
</svg>
